<svg width="120" height="40" viewBox="0 0 120 40" fill="none" xmlns="http://www.w3.org/2000/svg">
<g clip-path="url(#clip0_328_1706)">
<path d="M13.6608 2.86584C12.3877 2.86584 11.3584 3.89511 11.3584 5.17072C11.3584 6.44633 12.3901 7.4756 13.6608 7.4756C14.9316 7.4756 15.9657 6.44389 15.9657 5.17072C15.9657 3.89755 14.9364 2.86584 13.6608 2.86584Z" fill="black"/>
<path d="M19.0703 2.99756H20.1996C20.7337 2.99756 21.1703 3.48292 21.1703 4.06341C21.1923 4.65853 20.7459 5.1439 20.1996 5.1439H19.0703V2.99756Z" fill="black"/>
<path d="M24.6631 2.97314V7.36339H25.2338C26.2411 7.36339 27.0167 6.38046 26.9924 5.16827C26.9924 3.96583 26.2411 2.97314 25.2216 2.97314H24.6631Z" fill="black"/>
<path d="M40.1874 2.99756H39.0605V5.1439H40.1874C40.7215 5.1439 41.1605 4.65853 41.1605 4.06341C41.1605 3.46829 40.724 2.99756 40.1874 2.99756Z" fill="black"/>
<path d="M44.0947 5.17072C44.0947 3.89511 45.124 2.86584 46.3996 2.86584C47.6728 2.86584 48.702 3.89755 48.702 5.17072C48.702 6.44389 47.6752 7.4756 46.3996 7.4756C45.124 7.4756 44.0947 6.44633 44.0947 5.17072Z" fill="black"/>
<path fill-rule="evenodd" clip-rule="evenodd" d="M2 0V10.4293H58.961V0H2ZM9.17317 8.40732L5.49756 4.42927L5.47317 4.39268V8.26098H4.52683V1.95366L8.23902 6.01707V2.07561H9.17317V8.40732ZM13.661 8.41951C11.8659 8.41951 10.4098 6.95122 10.4098 5.16829C10.4098 3.38537 11.878 1.91707 13.661 1.91707C15.4439 1.91707 16.9 3.37317 16.9122 5.16829C16.9122 6.96342 15.4439 8.41951 13.661 8.41951ZM21.422 8.27317L19.9927 6.1122V6.10244H19.0683V8.27317H18.122V2.08781H20.2927C21.3 2.08781 22.1244 2.97317 22.1244 4.0878C22.1244 4.7439 21.822 5.37317 21.3122 5.74878C21.239 5.81333 21.1545 5.8589 21.0585 5.91061L21.0195 5.93171L21.0098 5.94146L22.5488 8.27317H21.422ZM25.2561 8.25854H23.7268V2.07561H25.2561C26.7366 2.07561 27.9341 3.46829 27.9341 5.16829C27.9341 6.86829 26.7463 8.26098 25.2561 8.26098V8.25854ZM31.6829 7.84634C31.3805 8.16098 30.9561 8.3439 30.4829 8.36829H30.4585C29.1854 8.36829 28.7488 7.34878 28.6756 7.1439L29.4756 6.7561L29.5122 6.82927L29.5129 6.83059C29.6472 7.07224 29.8767 7.48537 30.4707 7.48537H30.5073C30.7146 7.48537 30.8585 7.4122 30.9927 7.26585C31.139 7.09512 31.2122 6.87805 31.2 6.64634C31.1634 6.33171 31.0049 6.06341 30.6171 5.74878L29.9268 5.12927C29.2951 4.60732 28.9927 4.12195 28.9683 3.58781C28.9439 3.13902 29.078 2.73902 29.3683 2.44878C29.6463 2.17073 30.0366 2 30.4854 1.97561C31.261 1.93902 31.8561 2.48537 31.9781 2.69024H31.9902L31.239 3.2L31.2268 3.1878C30.9732 2.8 30.5 2.86098 30.5 2.86098C30.1244 2.87317 29.8927 3.13902 29.8927 3.49268C29.8927 3.80732 30.0512 4.0878 30.3659 4.32927L31.1049 4.97317C31.9537 5.66341 32.1122 6.29512 32.1244 6.62195C32.1488 7.08293 31.9902 7.51951 31.6878 7.84634H31.6829ZM36.8488 2.07561V2.94634H35.3707V8.25854H34.4V2.93659H32.9195V2.07561H36.8488ZM41.4122 8.27317L39.9805 6.1122V6.10244H39.0585V8.27317H38.1098V2.08781H40.2805C41.2878 2.08781 42.1146 2.97317 42.1146 4.0878C42.1146 4.7439 41.8098 5.37317 41.3024 5.74878C41.2299 5.81093 41.1486 5.85548 41.0585 5.90485L41.0098 5.93171L40.9951 5.94146L42.5366 8.27317H41.4122ZM46.3976 8.41951C44.6024 8.41951 43.1463 6.95122 43.1463 5.16829C43.1463 3.38537 44.6146 1.91707 46.3976 1.91707C48.1805 1.91707 49.6366 3.37317 49.6488 5.16829C49.6488 6.96342 48.1805 8.41951 46.3976 8.41951ZM56.4049 8.26098H55.4707V4.86585L53.639 7.31707L51.8073 4.86585V8.26098H50.8732V1.95366L53.6268 5.70244L56.4049 1.95366V8.26098Z" fill="black"/>
<path fill-rule="evenodd" clip-rule="evenodd" d="M17.6293 39.4488H30.8049L29.722 32.1585C29.2878 29.1634 27.0146 28.1878 23.4049 28.0439L19.2902 27.9V26.7439L23.0439 26.3829C27.0512 25.9854 29.5049 24 29.5049 19.922V18.8756C29.5049 15.0488 26.8341 12.378 23.0073 12.378H2V39.4488H14.778V30.3878H16.2585L17.6293 39.4488ZM16.7268 24.6512H14.778V19.0561H16.7268V24.6512Z" fill="black"/>
<path fill-rule="evenodd" clip-rule="evenodd" d="M47.4829 39.4512H58.961V18.8732C58.961 15.0463 56.2902 12.3756 52.4634 12.3756H37.9537C34.1268 12.3756 31.4561 15.0463 31.4561 18.8732V21.4H44.2341V18.9463H46.1829V23.061H37.9537C34.1268 23.061 31.4561 25.7317 31.4561 29.5585V33.422C31.4561 37.2488 34.1268 39.9195 37.9537 39.9195H40.4439C44.0537 39.9195 45.4976 37.5024 46.3268 35.0829H47.4829V39.4512ZM44.2341 25.7707H46.1829V32.1951H44.2341V25.7707Z" fill="black"/>
<path d="M67.4073 12.378C63.5805 12.378 60.9098 15.0488 60.9098 18.8756V32.9512C60.9098 36.7781 63.5805 39.4488 67.4073 39.4488H81.9171C85.7439 39.4488 88.4146 36.7781 88.4146 32.9512V26.6707H75.6366V32.8805H73.6878V19.0195H75.6366V25.0122H88.4146V18.8756C88.4146 15.0488 85.7439 12.378 81.9171 12.378H67.4073Z" fill="black"/>
<path d="M105.815 39.4512H118.556L118.559 39.4488L117.402 31.5805C116.898 28.078 114.912 26.8512 111.015 26.6707L107.512 26.5268V25.4073L111.085 25.2268C114.622 25.0463 117.078 23.4951 117.583 19.8854L118.666 12.378H105.815L104.263 23.0634H103.144V12.378H90.3658V39.4512H103.144V28.9829H104.263L105.815 39.4512Z" fill="black"/>
</g>
<defs>
<clipPath id="clip0_328_1706">
<rect width="120" height="40" fill="white"/>
</clipPath>
</defs>
</svg>
